PathFileType	4	(X/Y/Z)	./resultDataOpenSim/trcMotMarkerGrf/sub06/qtm-03-05.trc
DataRate	CameraRate	NumFrames	NumMarkers	Units	OrigDataRate	OrigDataStartFrame	OrigNumFrames
250.000000	250.000000	15	24	m	250.000000	389	518
Frame#	Time	L.Toe.Tip			R.Toe.Tip			L.Ankle.Lat			R.Ankle.Lat			L.Ankle.Med			R.Ankle.Med			L.Heel			R.Heel			L.Knee.Lat			R.Knee.Lat			L.Knee.Med			R.Knee.Med			L.Thigh.Upper			R.Thigh.Upper			L.ASIS			R.ASIS			V.Sacral			L.Acromium			R.Acromium			C7			L.Elbow			R.Elbow			L.Wrist.Lat			R.Wrist.Lat
		X1	Y1	Z1	X2	Y2	Z2	X3	Y3	Z3	X4	Y4	Z4	X5	Y5	Z5	X6	Y6	Z6	X7	Y7	Z7	X8	Y8	Z8	X9	Y9	Z9	X10	Y10	Z10	X11	Y11	Z11	X12	Y12	Z12	X13	Y13	Z13	X14	Y14	Z14	X15	Y15	Z15	X16	Y16	Z16	X17	Y17	Z17	X18	Y18	Z18	X19	Y19	Z19	X20	Y20	Z20	X21	Y21	Z21	X22	Y22	Z22	X23	Y23	Z23	X24	Y24	Z24

389	1.552	1.5969733	0.13737345	-0.021550725	0.91152536	0.035626691	0.18061308	1.4732644	0.10659891	-0.035771111	0.78080596	0.078218229	0.19209134	1.4721424	0.12069632	0.048222076	0.81164695	0.091779541	0.10604608	1.4257166	0.043703846	0.0098089065	0.72724319	0.063648276	0.12901408	1.3488717	0.45481635	-0.034205333	0.9726142	0.4218644	0.21824818	1.3370885	0.44073062	0.088384156	0.94937965	0.42112742	0.087291319	1.1420517	0.78442603	-0.078556678	1.0780503	0.77014191	0.26942213	1.2017918	0.82767619	-0.023018057	1.1867379	0.81443403	0.22932967	1.0081475	0.89556159	0.095508935	1.0974876	1.2997516	-0.08858597	1.1343416	1.2996997	0.27311325	1.0384333	1.3360432	0.098809452	0.98929306	1.0083953	-0.12803808	1.1564681	0.97947024	0.36106931	1.0473686	0.78166413	-0.19677418	1.393115	0.94056523	0.29390993
390	1.556	1.6054063	0.13723682	-0.02161563	0.91165186	0.035618071	0.18063007	1.4816821	0.10601875	-0.035591647	0.78162257	0.079422934	0.19235706	1.4804186	0.11998476	0.048424537	0.8125002	0.092810132	0.10625029	1.4343403	0.042762071	0.009957601	0.72778013	0.065662131	0.12928822	1.3557266	0.45367183	-0.033934661	0.97723612	0.42118629	0.21809175	1.3415018	0.43907619	0.088752688	0.95411314	0.42051085	0.087184605	1.1494043	0.78277775	-0.078928715	1.0840813	0.76878083	0.26893374	1.2089641	0.82583522	-0.023137684	1.1928115	0.81246333	0.22967106	1.0150198	0.89421129	0.094800296	1.1039573	1.2981204	-0.089397821	1.1405766	1.2983636	0.27235058	1.0448291	1.3345958	0.097941757	0.99553074	1.0069846	-0.12838901	1.1626867	0.97804707	0.36037518	1.0522185	0.77998622	-0.19726184	1.3991965	0.93930521	0.29273581
391	1.56	1.613246	0.13655349	-0.021474487	0.91177475	0.035597937	0.18067081	1.489438	0.10511592	-0.035319304	0.78253567	0.080658751	0.19268532	1.4879102	0.11895106	0.048709983	0.81339518	0.09394345	0.10652926	1.4421721	0.041614646	0.010179457	0.72838454	0.067804661	0.12963919	1.3626487	0.45262298	-0.033706868	0.98200001	0.4205099	0.21794455	1.3465449	0.43770328	0.089037425	0.95898691	0.41987632	0.087123626	1.1567599	0.78116737	-0.079290611	1.08979	0.76741317	0.26806431	1.2161843	0.82404104	-0.02327178	1.199243	0.8108096	0.22945275	1.0219103	0.8929138	0.094083893	1.1104812	1.2965343	-0.090233335	1.1468456	1.2970743	0.27156623	1.051264	1.3331776	0.097012201	1.0018291	1.005612	-0.12876904	1.1688299	0.97668823	0.35966708	1.0572062	0.77833923	-0.19774942	1.405201	0.93796556	0.29159933
392	1.564	1.6204461	0.13530494	-0.021094666	0.91189859	0.03557846	0.18074159	1.4965213	0.10388483	-0.034972163	0.78359551	0.081917969	0.19308888	1.494702	0.11762057	0.049053413	0.81433632	0.095174021	0.10687967	1.4492136	0.040252604	0.010452512	0.72904915	0.070090152	0.13008167	1.369602	0.45161987	-0.033524445	0.98690861	0.41983505	0.21781103	1.3522861	0.43658092	0.089238287	0.96402381	0.41922085	0.087082063	1.1641257	0.77959169	-0.07964476	1.0951572	0.76603922	0.26676661	1.2234436	0.82231618	-0.023426438	1.2058926	0.80944178	0.22893673	1.028843	0.89166298	0.093299199	1.1170625	1.2949949	-0.091092316	1.1531468	1.2958355	0.2707573	1.0577348	1.3317855	0.096032562	1.0081821	1.00428	-0.12917751	1.1749078	0.97540376	0.35895083	1.0623353	0.77672911	-0.19823079	1.4111339	0.93654857	0.29050344
393	1.568	1.6269963	0.13349504	-0.020461307	0.91203983	0.035571756	0.18083058	1.5029423	0.1023244	-0.034568577	0.78478958	0.083242156	0.19356409	1.5008892	0.1160193	0.04944092	0.81533	0.096485537	0.10728895	1.4554769	0.038671947	0.010759769	0.7297589	0.072532265	0.13064084	1.3765718	0.4506216	-0.033366006	0.99196747	0.41915831	0.21769656	1.3584707	0.43562183	0.089358124	0.96925109	0.41854015	0.087027146	1.1714953	0.77808112	-0.079998175	1.1005429	0.76468159	0.26533192	1.23074	0.82066803	-0.023602216	1.2126716	0.80822273	0.22841828	1.035842	0.89044243	0.092428022	1.1237055	1.2935047	-0.091979731	1.1594633	1.2946582	0.26990944	1.0642401	1.3304196	0.095018553	1.0145876	1.0029898	-0.12960801	1.1809606	0.97422205	0.35824916	1.0676084	0.77516527	-0.19869667	1.4169986	0.93505668	0.28945025
394	1.572	1.6329249	0.1311562	-0.019571604	0.91220615	0.035578283	0.18092255	1.5087558	0.10043085	-0.034111702	0.78604053	0.084711728	0.19408176	1.5065281	0.11414934	0.049885827	0.81638639	0.097874154	0.10774889	1.4609861	0.036864213	0.011087361	0.73051289	0.075134576	0.13132721	1.3835626	0.44960907	-0.033192319	0.99717967	0.41847092	0.21759802	1.3648769	0.4347271	0.089406183	0.97467954	0.41783335	0.086944585	1.1788619	0.77667936	-0.080365232	1.1064099	0.76336743	0.26414459	1.2380755	0.81909721	-0.023798293	1.2196614	0.80703312	0.22797848	1.0429178	0.88923478	0.091504746	1.1304118	1.2920661	-0.092901404	1.1657706	1.2935589	0.26900346	1.0707769	1.3290783	0.093978687	1.0210442	1.0017429	-0.1300565	1.1870603	0.97319018	0.35760361	1.0730267	0.77365568	-0.19914403	1.4227924	0.9334917	0.2884419
395	1.576	1.6382648	0.1283329	-0.018435217	0.91239058	0.035590064	0.18101213	1.5140359	0.098205116	-0.033597073	0.7872718	0.086377923	0.19459953	1.5116	0.11199798	0.050401211	0.81752072	0.099354441	0.10826377	1.4657705	0.034818785	0.011423629	0.73133402	0.077889856	0.13211552	1.3905767	0.44859385	-0.032978815	1.0025478	0.41776334	0.21751138	1.3713955	0.43381543	0.089395776	0.98029893	0.41710396	0.086853539	1.1862376	0.77541071	-0.080766355	1.1128985	0.76210193	0.26331689	1.2454537	0.81760939	-0.024015142	1.2270845	0.80587756	0.22745962	1.0500527	0.88803668	0.090575848	1.1371803	1.2906809	-0.093856706	1.1720614	1.2925447	0.26803634	1.0773422	1.327758	0.092910183	1.0275518	1.0005361	-0.13052555	1.1932315	0.97232399	0.3570303	1.0785898	0.77220441	-0.19957993	1.4285089	0.93186086	0.28748498
396	1.58	1.6430187	0.1250656	-0.017083092	0.9125866	0.035600754	0.18110471	1.5188095	0.0956613	-0.033024804	0.78845377	0.088222191	0.19508891	1.5160173	0.10955526	0.050963741	0.81874893	0.10094581	0.10884649	1.4698362	0.032548412	0.011759585	0.73226123	0.080788418	0.13296051	1.3975943	0.44761001	-0.032747225	1.0080784	0.41703172	0.21745179	1.3779666	0.43284312	0.089339078	0.98608921	0.41635258	0.086799598	1.1936462	0.77427417	-0.081212882	1.1197404	0.76088308	0.26270844	1.2528901	0.81621476	-0.024251992	1.235028	0.80481068	0.2267207	1.0572141	0.88685968	0.089663069	1.1440079	1.2893493	-0.094837437	1.178365	1.2915977	0.26702922	1.0839399	1.3264593	0.091806102	1.0341132	0.99936504	-0.13101977	1.1993727	0.97155681	0.35647688	1.0842938	0.77081065	-0.2000171	1.4341453	0.93017339	0.28658913
397	1.584	1.6471561	0.12139467	-0.015560774	0.91280035	0.035607441	0.18121123	1.523024	0.092817958	-0.03239224	0.78960865	0.090197012	0.19556523	1.5197073	0.10681582	0.05153598	0.8200767	0.10265861	0.10950322	1.473125	0.030130224	0.012080027	0.73332882	0.083827263	0.1338329	1.4045807	0.44668676	-0.032540094	1.0137773	0.41628002	0.21745861	1.3845459	0.43180957	0.089244901	0.99202968	0.41556835	0.086835328	1.2011085	0.77325783	-0.081696656	1.126343	0.75974816	0.26217471	1.2604096	0.81492124	-0.024508346	1.2431366	0.8038128	0.22588018	1.0643861	0.88571346	0.088765926	1.1508912	1.2880699	-0.095835151	1.1847229	1.2906862	0.2660048	1.0905713	1.3251855	0.090670336	1.0407329	0.99823152	-0.13153973	1.2053288	0.97078644	0.35586287	1.0901362	0.76946979	-0.20046681	1.4397054	0.92843273	0.28576139
398	1.588	1.6506574	0.1173474	-0.013901561	0.91304524	0.035608685	0.18134185	1.5265999	0.089691604	-0.031702963	0.79082102	0.092273353	0.19609382	1.5226915	0.10377904	0.052124546	0.82149807	0.10449131	0.11022116	1.4755206	0.027743963	0.012349635	0.73455182	0.087011504	0.13473189	1.4115011	0.44582474	-0.032366617	1.0196352	0.41551703	0.21756515	1.3911072	0.43074314	0.089121859	0.99810754	0.41473424	0.086985611	1.2086397	0.77235046	-0.082202639	1.1319183	0.75878468	0.26168555	1.2680231	0.81372757	-0.024789104	1.2508017	0.80282127	0.22520677	1.0715689	0.88459703	0.087890822	1.15783	1.2868426	-0.096847811	1.1911417	1.2897948	0.26496772	1.0972268	1.3239331	0.089515428	1.0474116	0.99714275	-0.13208604	1.211035	0.96996785	0.35515469	1.0961198	0.76817871	-0.20093484	1.4451964	0.92663764	0.28500527
399	1.592	1.6535978	0.11286008	-0.012113909	0.91332781	0.035606959	0.18150206	1.5295241	0.086329847	-0.031004144	0.79220006	0.094439397	0.19673759	1.5250851	0.10047943	0.052776576	0.82301006	0.10643372	0.11097764	1.4769808	0.025662009	0.012528646	0.73593137	0.090348827	0.13566818	1.4183194	0.44499318	-0.03220287	1.0256303	0.41474404	0.21775431	1.3976433	0.42967317	0.088983246	1.004332	0.41384476	0.087213124	1.2162531	0.77153912	-0.082721433	1.1361113	0.75803718	0.26126075	1.2757178	0.81262862	-0.025099107	1.2577499	0.80182288	0.22482079	1.0787508	0.88350769	0.087057668	1.1648254	1.2856683	-0.097879492	1.1975944	1.2889305	0.26391136	1.1039059	1.322689	0.088337472	1.0541415	0.99610249	-0.13266339	1.2165345	0.96912404	0.35437096	1.1022484	0.76693765	-0.2014199	1.4506214	0.92478519	0.28431819
400	1.596	1.6562553	0.1076816	-0.010216435	0.91364444	0.035610824	0.18169179	1.531912	0.082885437	-0.030399488	0.79377551	0.096684778	0.19750104	1.527117	0.097055884	0.053514993	0.82464398	0.10845973	0.11176845	1.4777344	0.024178896	0.012631756	0.73747179	0.093841703	0.13664526	1.4249994	0.44413594	-0.032030681	1.03176	0.41394658	0.21795544	1.404157	0.42860004	0.088849159	1.010736	0.41290915	0.087446361	1.223961	0.77080216	-0.083245337	1.1397788	0.75738846	0.26085514	1.2834701	0.81163055	-0.025427347	1.2642412	0.80084176	0.22462084	1.0859006	0.88245629	0.086280634	1.1718745	1.2845437	-0.09893667	1.2040612	1.2881049	0.26282692	1.1106147	1.3214476	0.08711879	1.0609131	0.99510835	-0.13327426	1.2219165	0.9683016	0.35354789	1.1085217	0.76574617	-0.20191523	1.4559736	0.92287069	0.28368924
401	1.6	1.6591625	0.10144099	-0.0083272462	0.91399155	0.035629172	0.18190621	1.5340629	0.079673695	-0.029991787	0.79546817	0.098989037	0.19835979	1.5292191	0.093792617	0.054298677	0.82646898	0.11052922	0.1126206	1.4783005	0.02357569	0.012744101	0.7391951	0.097486169	0.1376574	1.4315283	0.44318483	-0.031849305	1.0380566	0.41311194	0.2180966	1.4106538	0.42748258	0.08874223	1.0173523	0.41193289	0.087648062	1.2317727	0.77011464	-0.083769141	1.1443977	0.75663624	0.26037288	1.2912528	0.8107538	-0.025745514	1.2707171	0.7998874	0.22444691	1.0929829	0.88147861	0.085564138	1.1789681	1.283463	-0.10002446	1.2105427	1.2873222	0.261707	1.1173354	1.3202307	0.085855549	1.067724	0.99415608	-0.13391807	1.2272645	0.96753372	0.35271537	1.1149391	0.7646033	-0.20241536	1.4612403	0.92089395	0.28310838
402	1.604	1.6629246	0.094039067	-0.0067571047	0.91437285	0.035663035	0.18213958	1.5364881	0.077106104	-0.029767968	0.79720324	0.1013237	0.19932366	1.5319644	0.091025844	0.055025465	0.82851532	0.11263519	0.11355411	1.4792412	0.024072288	0.012929417	0.74113927	0.10128164	0.13870239	1.4379355	0.44209366	-0.031651507	1.0445732	0.41224401	0.21816591	1.4171297	0.42625949	0.088674738	1.024193	0.41090567	0.087826008	1.2396905	0.76947054	-0.084296698	1.1505559	0.75569458	0.25976957	1.2990294	0.81002492	-0.026029655	1.2774132	0.79895917	0.22421437	1.099992	0.88063264	0.084901705	1.1860963	1.2824252	-0.10114448	1.2170425	1.2865815	0.26055206	1.1240317	1.3190832	0.084553513	1.074577	0.99324183	-0.13459887	1.2326164	0.9668169	0.35187764	1.1214982	0.76350879	-0.20292064	1.4664157	0.91886405	0.28257568
403	1.608	1.6677915	0.086056147	-0.0059070804	0.91479754	0.035708108	0.1823892	1.5397547	0.075447885	-0.029562168	0.79909576	0.10369802	0.20044333	1.5357615	0.088946727	0.055572718	0.83073064	0.11482797	0.11454882	1.4808797	0.025639728	0.013143778	0.74333859	0.10524244	0.13979715	1.4442878	0.44087449	-0.031403925	1.0513717	0.4113483	0.21822084	1.423561	0.42489121	0.088634401	1.0312576	0.4098077	0.087995149	1.2477022	0.76891475	-0.084841905	1.1577524	0.7546217	0.25906452	1.3067581	0.80946888	-0.026279274	1.2842315	0.79807191	0.2239305	1.1069796	0.87997138	0.084270273	1.1932578	1.2814343	-0.10229813	1.2235556	1.2858883	0.25937356	1.1306799	1.3180639	0.0832024	1.0814754	0.99236021	-0.13532489	1.2379701	0.96612546	0.35101717	1.1281945	0.76246023	-0.20343525	1.4715068	0.91679069	0.28209615
